<svg xmlns="http://www.w3.org/2000/svg" viewBox="0 0 32 32">
  <!-- Fond transparent -->
  <rect width="32" height="32" fill="none"/>
  
  <!-- Étoile en haut (style dessinée à la main) -->
  <path d="M16 4 L16.5 5.5 L18 6 L17 7 L17.3 8.5 L16 7.5 L14.7 8.5 L15 7 L14 6 L15.5 5.5 Z" 
        fill="none" stroke="#000" stroke-width="0.6" stroke-linecap="round" stroke-linejoin="round"/>
  
  <!-- Corde qui serpente jusqu'au sol -->
  <path d="M16 8.5 
           Q15.5 12 16 14 
           Q16.5 16 15.5 18
           Q14.5 20 15 22
           Q15.5 24 14 26
           Q12 27 10 28
           Q9 29.5 11 30
           Q13 30.5 15 29.5
           Q17 28.5 19 29.5
           Q21 30.5 23 30
           Q25 29.5 24 28" 
        fill="none" stroke="#000" stroke-width="0.6" stroke-linecap="round"/>
  
</svg>